<?xml version="1.0" encoding="iso-8859-1"?>
<!-- Generator: Adobe Illustrator 19.0.0, SVG Export Plug-In . SVG Version: 6.00 Build 0)  -->
<svg version="1.1" id="Layer_1" xmlns="http://www.w3.org/2000/svg" xmlns:xlink="http://www.w3.org/1999/xlink" x="0px" y="0px"
	 viewBox="0 0 511.999 511.999" style="enable-background:new 0 0 511.999 511.999;" xml:space="preserve">
<g>
	<g>
		<path d="M259.102,110.585c-0.13-4.433-3.838-7.891-8.26-7.793c-4.434,0.13-7.922,3.828-7.793,8.261l3.68,126.293
			c0.264,9.09-11.909,12.815-16.78,5.146L114.208,60.243c-0.746-1.175-1.621-2.147-2.102-3.484
			c-0.487-1.359-0.632-2.825-0.442-4.255c0.344-2.598,1.788-4.932,3.973-6.381c17.109-11.35,35.975-19.647,56.076-24.66
			c20.098-5.013,40.651-6.543,61.089-4.559c6.982,0.68,7.79,9.852,7.873,12.648l1.377,47.24c0.128,4.432,3.826,7.899,8.26,7.793
			c4.434-0.13,7.922-3.828,7.793-8.261l-1.376-47.24c-0.461-15.831-9.242-26.886-22.371-28.165
			c-22.266-2.165-44.649-0.496-66.53,4.961c-21.883,5.458-42.429,14.495-61.067,26.861c-5.543,3.677-9.465,9.544-10.756,16.068
			c-1.411,7.129,0.399,14.692,4.88,20.413l115.507,181.882c6.055,9.535,17.808,13.879,28.614,10.567
			c10.966-3.362,18.111-13.323,17.777-24.789L259.102,110.585z"/>
	</g>
</g>
<g>
	<g>
		<path d="M222.38,282.358l-117.069-65.627c-6.194-3.472-13.606-4.168-20.339-1.902c-6.72,2.259-12.198,7.28-15.029,13.773
			c-8.939,20.505-14.269,42.31-15.841,64.805c-1.572,22.496,0.674,44.829,6.675,66.379c1.901,6.825,6.627,12.558,12.967,15.73
			c6.309,3.156,13.833,3.505,20.406,0.944l125.058-48.71c9.164-3.569,15.283-11.879,15.968-21.69
			C235.863,296.249,230.959,287.167,222.38,282.358z M219.154,304.94c-0.252,3.602-2.41,6.536-5.776,7.846l-125.058,48.71
			c-4.947,1.925-10.648-0.904-12.072-6.017c-5.509-19.781-7.569-40.288-6.125-60.953c1.443-20.663,6.335-40.684,14.541-59.506
			c2.121-4.863,8.162-6.877,12.793-4.281l117.069,65.627C217.677,298.133,219.406,301.337,219.154,304.94z"/>
	</g>
</g>
<g>
	<g>
		<path d="M273.208,485.388l-7.68-133.989c-0.563-9.818-6.577-18.206-15.696-21.888c-9.12-3.684-19.271-1.829-26.497,4.845
			l-39.707,36.674c-3.258,3.01-3.459,8.09-0.451,11.348c3.009,3.257,8.089,3.459,11.347,0.451l39.708-36.674
			c5.565-5.144,14.829-1.368,15.261,6.165l7.681,133.989c0.305,5.307-4.146,9.829-9.454,9.621
			c-20.513-0.873-40.653-5.25-59.861-13.009c-19.206-7.758-36.736-18.598-52.101-32.218c-3.975-3.525-4.015-9.89-0.118-13.489
			l33.187-30.652c3.257-3.01,3.459-8.09,0.451-11.348c-3.01-3.258-8.089-3.461-11.348-0.451l-33.186,30.652
			c-5.226,4.827-8.212,11.81-8.091,18.922c0.118,6.983,3.225,13.749,8.452,18.383c16.74,14.838,35.83,26.645,56.74,35.091
			c20.911,8.448,42.845,13.212,65.193,14.164c7.031,0.31,14.03-2.462,18.966-7.471C270.956,499.479,273.611,492.432,273.208,485.388
			z"/>
	</g>
</g>
<g>
	<g>
		<path d="M447.384,360.248c-3.351-5.64-8.901-9.827-15.248-11.493l-129.805-34.101c-9.51-2.499-19.347,0.63-25.669,8.163
			c-6.321,7.534-7.693,17.765-3.579,26.698l56.136,121.904c2.676,5.811,7.581,10.467,13.519,12.845
			c7.153,2.865,15.43,2.243,22.073-1.661c19.285-11.337,36.413-25.843,50.906-43.118c14.495-17.276,25.805-36.664,33.617-57.625
			C451.967,374.796,451.237,366.728,447.384,360.248z M434.286,376.252c-7.17,19.24-17.557,37.043-30.871,52.912
			c-13.313,15.868-29.039,29.189-46.741,39.594c-4.587,2.693-10.65,0.756-12.866-4.056l-56.136-121.904
			c-3.166-6.877,3.265-14.527,10.579-12.61l129.805,34.101C433.18,365.635,436.143,371.269,434.286,376.252z"/>
	</g>
</g>
<g>
	<g>
		<path d="M457.796,260.775c-4.821-21.845-13.326-42.618-25.276-61.74c-11.952-19.124-26.896-35.873-44.417-49.778
			c-5.548-4.405-12.741-6.269-19.736-5.104c-7.006,1.162-13.226,5.255-17.065,11.229L278.76,268.298
			c-5.315,8.274-5.38,18.595-0.168,26.934c5.138,8.222,14.654,12.791,24.283,11.654l133.286-15.718
			c7.052-0.832,13.457-4.629,17.572-10.417C457.842,274.974,459.322,267.693,457.796,260.775z M440.644,271.446
			c-1.513,2.128-3.773,3.467-6.364,3.773l-133.286,15.718c-7.493,0.882-12.823-7.574-8.722-13.958l72.542-112.915
			c1.41-2.195,3.605-3.639,6.181-4.068c0.511-0.085,1.02-0.126,1.525-0.126c2.027,0,3.972,0.677,5.598,1.967
			c16.083,12.765,29.804,28.143,40.782,45.709c10.977,17.565,18.788,36.638,23.213,56.689
			C442.671,266.767,442.15,269.328,440.644,271.446z"/>
	</g>
</g>
<g>
</g>
<g>
</g>
<g>
</g>
<g>
</g>
<g>
</g>
<g>
</g>
<g>
</g>
<g>
</g>
<g>
</g>
<g>
</g>
<g>
</g>
<g>
</g>
<g>
</g>
<g>
</g>
<g>
</g>
</svg>
